<?xml version="1.0" encoding="UTF-8"?>
<svg id="Layer_2" data-name="Layer 2" xmlns="http://www.w3.org/2000/svg" viewBox="0 0 502.27 519.39">
  <defs>
    <style>
      .cls-1 {
        letter-spacing: 0em;
      }

      .cls-2 {
        fill: #214080;
        stroke-width: 0px;
      }

      .cls-3 {
        letter-spacing: 0em;
      }

      .cls-4 {
        fill: #231f20;
        font-family: Rubik-Medium, Rubik;
        font-size: 144px;
        font-variation-settings: 'wght' 500;
        font-weight: 500;
      }
    </style>
  </defs>
  <g id="Layer_1-2" data-name="Layer 1">
    <g>
      <path class="cls-2" d="m247.55,329.61c-51.77,0-103.53,0-155.3,0-9.83,0-10.83-.99-10.82-10.91.1-73.23.21-146.47.32-219.7.05-29.96.12-59.92.18-89.87.02-7.43,1.52-8.99,9.11-9C126.5.05,161.95,0,197.41,0c68.08,0,136.16.02,204.24.04,9.46,0,11.06,1.58,11.06,10.92.05,103.37.1,206.74.15,310.11,0,7-1.29,8.41-8.51,8.42-52.26.03-104.53.02-156.79.02v.11Zm125.43-39.77c0-2.52,0-4.5,0-6.48.01-79.23-.01-158.45.12-237.68,0-4.35-1.18-5.67-5.6-5.67-79.89.1-159.78.09-239.66-.07-5.08-.01-6.44,1.52-6.42,6.53.2,79.39.21,158.79.29,238.18,0,1.75.25,3.51.38,5.18h250.89Z"/>
      <path class="cls-2" d="m241.03,202.57c1.76,0,3.52,0,5.28,0,23.47.03,46.94.17,70.41-.01,4.61-.04,6.18,1.42,6.07,5.99-.22,9.15,0,18.31.03,27.46.01,6.66-.28,7.08-7.01,7.1-34.46.09-68.91.11-103.37.13-11.15,0-22.3,0-33.46-.06-6.5-.03-7.27-.83-7.22-7.12.02-1.83.31-3.71.01-5.49-2.37-14.16,3.62-24.19,13.8-33.8,21.17-19.98,41.27-41.1,61.81-61.75,1.27-1.27,2.45-2.63,4.38-4.7-2.23-.16-3.6-.35-4.97-.35-22.8-.02-45.6,0-68.4-.05-6.25,0-6.68-.53-6.67-6.96.01-9.32.17-18.65-.05-27.96-.1-4.22,1.19-5.99,5.63-5.98,46.61.14,93.21.17,139.82.15,3.81,0,5.46,1.42,5.38,5.29-.16,7.65.24,15.34-.35,22.95-.2,2.54-2.3,5.34-4.26,7.29-25.71,25.56-51.55,51-77.36,76.46.17.47.33.94.5,1.41Z"/>
    </g>
    <text class="cls-4" transform="translate(0 452.29)"><tspan class="cls-3" x="0" y="0">z</tspan><tspan class="cls-1" x="75.46" y="0">egoda</tspan></text>
  </g>
</svg>